Coordinates
version=1
nRows=22
nColumns=24
inDegrees=yes

Units are S.I. units (second, meters, Newtons, ...)
Angles are in degrees.

endheader
time	pelvis_tilt	pelvis_list	pelvis_rotation	pelvis_tx	pelvis_ty	pelvis_tz	hip_flexion_r	hip_adduction_r	hip_rotation_r	knee_angle_r	ankle_angle_r	subtalar_angle_r	mtp_angle_r	hip_flexion_l	hip_adduction_l	hip_rotation_l	knee_angle_l	ankle_angle_l	subtalar_angle_l	mtp_angle_l	lumbar_extension	lumbar_bending	lumbar_rotation
      3.67000000	     -8.95821237	     -2.05228279	     -6.60809039	     -1.13737118	     -0.04086453	     -0.31185495	     -5.89562840	      3.73471377	      3.81520990	    -19.01903613	      8.97324667	     10.16732190	     16.90928910	     37.10984377	     -4.31247552	     -0.20694526	    -13.62572440	      5.92101347	     15.31318007	    -12.50768974	      7.77045486	      3.30793667	      6.73025975
      3.67500000	     -9.02834663	     -1.78302455	     -6.70730107	     -1.12997643	     -0.04181550	     -0.31214161	     -5.86105078	      3.29035766	      3.68111033	    -19.80431799	      8.64519209	     10.77228191	     17.61022350	     37.16875870	     -4.01749422	     -0.25014567	    -14.27490307	      4.83703961	     14.79989178	    -11.53543895	      7.98395670	      2.91264585	      6.73826536
      3.68000000	     -9.11003948	     -1.48340801	     -6.76281510	     -1.12257937	     -0.04269660	     -0.31244279	     -5.77971847	      2.80866076	      3.42157877	    -20.63008141	      8.24943655	     11.44396981	     18.34947193	     37.25815082	     -3.67452030	     -0.30331152	    -14.95812664	      3.64825295	     14.18254913	    -10.74818704	      8.21474354	      2.46208825	      6.71088836
      3.68500000	     -9.22350598	     -1.16483004	     -6.89255510	     -1.11528637	     -0.04350301	     -0.31265636	     -5.59435911	      2.30443077	      3.21763966	    -21.55721762	      7.82160127	     12.14581481	     18.95534482	     37.40599489	     -3.37145435	     -0.46097540	    -15.72168487	      2.53440394	     13.53893683	    -10.39108666	      8.46041980	      2.00853587	      6.81373191
      3.69000000	     -9.35350688	     -0.79312561	     -6.87911562	     -1.10790755	     -0.04427935	     -0.31304848	     -5.38933970	      1.73276048	      2.79672103	    -22.46966335	      7.31449641	     12.92601259	     19.74190748	     37.60688714	     -2.92808630	     -0.54975378	    -16.51003086	      1.29374995	     12.73520607	    -10.01502265	      8.74760491	      1.46843713	      6.74515753
      3.69500000	     -9.41071091	     -0.42415289	     -6.72134085	     -1.10048310	     -0.04487208	     -0.31355861	     -5.29881636	      1.15829530	      2.24070093	    -23.26870000	      6.46922923	     13.54435481	     21.10838627	     37.73967542	     -2.39370052	     -0.51392628	    -17.26352693	     -0.18627754	     11.78982896	     -9.18365831	      8.95968729	      0.87820887	      6.49327267
      3.70000000	     -9.56807709	     -0.03937435	     -6.67349521	     -1.09311684	     -0.04546416	     -0.31396670	     -5.01401441	      0.55656535	      1.72657581	    -24.22374604	      5.70891791	     14.35244961	     21.98459420	     38.00064745	     -1.92950729	     -0.61349720	    -18.12762920	     -1.31467103	     10.95410185	     -9.14467816	      9.27601530	      0.31657854	      6.44140049
      3.70500000	     -9.73293421	      0.37229827	     -6.66330359	     -1.08582639	     -0.04597699	     -0.31435302	     -4.65956141	     -0.08502835	      1.27366006	    -25.26933335	      4.91745094	     15.22694722	     22.72682142	     38.27959534	     -1.46442319	     -0.73452797	    -19.03392827	     -2.30251988	     10.11695847	     -9.40626204	      9.58445078	     -0.26443838	      6.41366152
      3.71000000	     -9.84434241	      0.75982390	     -6.51963498	     -1.07851908	     -0.04638782	     -0.31486733	     -4.36708465	     -0.72656037	      0.58653513	    -26.28711338	      3.91634337	     16.11936687	     23.78023718	     38.50205077	     -0.92050928	     -0.65399041	    -19.93451959	     -3.21684939	      9.21720343	     -9.79573675	      9.82889844	     -0.86280206	      6.28556435
      3.71500000	     -9.84576681	      1.15053178	     -6.33730725	     -1.07108218	     -0.04657186	     -0.31542269	     -4.22877148	     -1.39181843	     -0.11850185	    -27.16127028	      2.45368648	     16.72671487	     25.71223413	     38.56358853	     -0.32795415	     -0.48693651	    -20.80298021	     -3.88553295	      8.37907779	    -10.42978418	      9.96751087	     -1.48478777	      6.08062237
      3.72000000	     -9.97298300	      1.51713465	     -6.26964342	     -1.06381330	     -0.04688408	     -0.31591859	     -3.83111265	     -2.04527660	     -0.71504604	    -28.29466616	      1.25528719	     17.70097866	     26.61456300	     38.77185122	      0.15122314	     -0.44027124	    -21.70536693	     -4.42262902	      7.64810777	    -10.94489969	     10.21499772	     -2.02182217	      6.04628061
      3.72500000	     -9.95996116	      1.91041433	     -6.09981650	     -1.05634986	     -0.04693129	     -0.31647469	     -3.65261666	     -2.73914389	     -1.39026368	    -29.23491372	     -0.42227849	     18.31635913	     28.36300252	     38.76446266	      0.75055707	     -0.22198963	    -22.52838260	     -4.74571329	      6.95942104	    -11.75254713	     10.33356148	     -2.63362753	      5.94963680
      3.73000000	    -10.08399226	      2.30505364	     -5.99692670	     -1.04894087	     -0.04715398	     -0.31700920	     -3.22884213	     -3.43678878	     -1.93949251	    -30.40614148	     -1.83341698	     19.26481967	     29.02017193	     38.89845861	      1.27476888	     -0.19840108	    -23.33068575	     -5.01688473	      6.42303423	    -12.07276296	     10.60170607	     -3.19282733	      5.89099917
      3.73500000	     -9.99810791	      2.64988925	     -5.85795037	     -1.04159938	     -0.04707158	     -0.31764457	     -3.05260210	     -4.10993548	     -2.53192840	    -31.40745828	     -3.81496673	     19.78678043	     30.92112893	     38.73722579	      1.85239443	      0.12721219	    -24.04468032	     -5.07655949	      5.75240106	    -12.68422181	     10.60467324	     -3.72455281	      5.85670430
      3.74000000	    -10.02888670	      3.00637136	     -5.74839289	     -1.03429503	     -0.04711685	     -0.31824438	     -2.67752461	     -4.78207658	     -3.02134413	    -32.56801128	     -5.65136880	     20.41849507	     32.00775276	     38.68541218	      2.38978878	      0.29666896	    -24.72103208	     -5.09013449	      5.23115774	    -12.94606097	     10.73865190	     -4.23994166	      5.83065169
      3.74500000	    -10.06895390	      3.35746144	     -5.65818865	     -1.02709004	     -0.04717083	     -0.31887471	     -2.23145191	     -5.45246458	     -3.43009060	    -33.82778384	     -7.44127243	     21.12337460	     32.65730277	     38.61395778	      2.91212564	      0.42614520	    -25.33881121	     -5.03514227	      4.76648467	    -12.98479410	     10.86661170	     -4.72784334	      5.84090913
      3.75000000	    -10.04450985	      3.71056483	     -5.53347922	     -1.01986982	     -0.04707657	     -0.31949134	     -1.86222848	     -6.10215686	     -3.79857422	    -35.00094728	     -9.54734483	     21.38885601	     33.78404759	     38.40757654	      3.47180243	      0.62236170	    -25.85009367	     -4.89984069	      4.33845812	    -12.91684838	     10.92644486	     -5.23476320	      5.82885168
      3.75500000	    -10.10384977	      4.07557574	     -5.44616837	     -1.01282118	     -0.04708082	     -0.32004219	     -1.29876444	     -6.73844956	     -4.04282367	    -36.38634271	    -11.36088963	     21.69994863	     33.78160033	     38.28030451	      3.98992667	      0.69525119	    -26.33044378	     -4.65715292	      4.07559222	    -12.76833146	     11.05996646	     -5.72977318	      5.86925440
      3.76000000	    -10.19150799	      4.45320065	     -5.36576581	     -1.00583473	     -0.04708025	     -0.32077530	     -0.66392892	     -7.40744036	     -4.24530076	    -37.76372063	    -13.26651242	     22.01373836	     34.17081360	     38.12453029	      4.56420397	      0.89131442	    -26.69977304	     -4.45734403	      3.53013217	    -12.58072312	     11.22527674	     -6.19612856	      5.95148200
      3.76500000	    -10.23733240	      4.82005441	     -5.25519979	     -0.99896972	     -0.04697674	     -0.32136824	     -0.03944026	     -8.01216889	     -4.39041249	    -39.19066523	    -15.11438205	     21.94332988	     34.04875724	     37.90665173	      5.10282580	      0.96420771	    -27.03505203	     -4.10176736	      3.33576454	    -12.34931910	     11.32338104	     -6.68422930	      5.96669744
      3.77000000	    -10.36368953	      5.20993724	     -5.17481595	     -0.99216333	     -0.04691202	     -0.32204336	      0.73391806	     -8.63886475	     -4.46326000	    -40.65886703	    -16.91705124	     21.81521248	     33.95774433	     37.72769902	      5.66319193	      1.06738428	    -27.27774460	     -3.77680433	      2.95292833	    -12.11537285	     11.52273150	     -7.15220786	      6.03964218
      3.77500000	    -10.43172682	      5.59552038	     -5.05254613	     -0.98549556	     -0.04677343	     -0.32273559	      1.48236469	     -9.25962162	     -4.59851839	    -42.17308339	    -18.60487473	     21.46008867	     33.62898694	     37.47597781	      6.22960599	      1.11466073	    -27.49275575	     -3.34462528	      2.76790716	    -11.89137043	     11.63016984	     -7.62741140	      6.06602023
